<svg width="34" height="32" viewBox="0 0 34 32" fill="none" xmlns="http://www.w3.org/2000/svg">
<path d="M16.67 5.27983L10.0833 11.8932C8.87443 13.0843 8.05665 14.4887 7.62998 16.1065C7.22109 17.6887 7.22109 19.2709 7.62998 20.8532C8.05665 22.4709 8.86998 23.8798 10.07 25.0798C11.27 26.2798 12.6789 27.0932 14.2966 27.5198C15.8789 27.9287 17.4611 27.9287 19.0433 27.5198C20.6611 27.0932 22.07 26.2798 23.27 25.0798C24.47 23.8798 25.2833 22.4709 25.71 20.8532C26.1189 19.2709 26.1189 17.6887 25.71 16.1065C25.2833 14.4887 24.4655 13.0843 23.2567 11.8932L16.67 5.27983ZM16.67 1.51983L25.15 9.99983C26.6966 11.5287 27.7367 13.3421 28.27 15.4398C28.8033 17.4665 28.8033 19.4932 28.27 21.5198C27.7367 23.6176 26.7011 25.4354 25.1633 26.9732C23.6255 28.5109 21.8078 29.5554 19.71 30.1065C17.6833 30.6221 15.6566 30.6221 13.63 30.1065C11.5322 29.5554 9.71443 28.5109 8.17665 26.9732C6.63887 25.4354 5.60332 23.6176 5.06998 21.5198C4.53665 19.4932 4.53665 17.4665 5.06998 15.4398C5.60332 13.3421 6.64332 11.5287 8.18998 9.99983L16.67 1.51983ZM18.0033 15.8132H21.3367L15.3366 24.4798V18.4798H12.0033L18.0033 9.81316V15.8132Z" fill="#1A3C2B"/>
</svg>
